<?xml version="1.0" standalone="no"?>
<!DOCTYPE svg PUBLIC "-//W3C//DTD SVG 20010904//EN"
 "http://www.w3.org/TR/2001/REC-SVG-20010904/DTD/svg10.dtd">
<svg version="1.0" xmlns="http://www.w3.org/2000/svg"
 width="260.000000pt" height="260.000000pt" viewBox="0 0 260.000000 260.000000"
 preserveAspectRatio="xMidYMid meet">
<metadata>
Created by potrace 1.14, written by Peter Selinger 2001-2017
</metadata>
<g transform="translate(0.000000,260.000000) scale(0.100000,-0.100000)"
fill="#000000" stroke="none">
<path d="M1400 2593 c-1 -4 -3 -25 -6 -46 -6 -41 8 -67 35 -67 14 1 14 2 -1
11 -13 7 -16 19 -13 54 3 24 1 47 -5 50 -5 3 -10 3 -10 -2z"/>
<path d="M1134 2582 c-6 -4 -16 -16 -22 -28 -14 -26 5 -67 33 -72 17 -4 18 -3
2 13 -19 19 -22 47 -7 76 12 21 11 22 -6 11z"/>
<path d="M1172 2583 c11 -3 20 -19 24 -40 5 -29 3 -39 -11 -50 -25 -18 -5 -17
21 2 37 25 15 96 -30 94 -16 -1 -17 -2 -4 -6z"/>
<path d="M1259 2590 c0 -3 -2 -20 -4 -38 -2 -19 -6 -40 -9 -48 -3 -9 -1 -12 4
-9 6 3 10 15 10 27 0 17 2 18 15 8 8 -7 15 -19 15 -26 0 -21 17 -17 23 6 3 11
1 20 -3 20 -4 0 -17 15 -29 33 -11 17 -21 30 -22 27z"/>
<path d="M1336 2568 c-8 -12 -12 -26 -8 -32 6 -11 8 -16 11 -35 0 -5 8 -11 16
-14 11 -5 12 -1 7 16 -4 12 -7 37 -6 55 3 38 0 39 -20 10z"/>
<path d="M1473 2565 c0 -8 4 -12 9 -9 4 3 8 9 8 15 0 5 -4 9 -8 9 -5 0 -9 -7
-9 -15z"/>
<path d="M1020 2566 c0 -2 11 -6 25 -8 14 -3 25 -1 25 3 0 5 -11 9 -25 9 -14
0 -25 -2 -25 -4z"/>
<path d="M1516 2523 c-6 -43 -2 -63 9 -51 3 2 6 17 7 31 1 15 5 27 8 27 3 0
18 -19 32 -41 30 -46 25 -50 43 35 3 14 1 28 -5 31 -6 4 -13 -7 -16 -24 -8
-40 -15 -39 -38 4 -11 19 -22 35 -26 35 -4 0 -10 -21 -14 -47z"/>
<path d="M992 2548 c-27 -27 -8 -88 27 -88 12 0 12 2 -1 18 -9 9 -14 31 -12
50 3 36 3 37 -14 20z"/>
<path d="M1470 2516 c0 -13 -5 -27 -10 -29 -6 -3 -5 -4 2 -3 14 3 31 56 17 56
-5 0 -9 -11 -9 -24z"/>
<path d="M1642 2493 c-6 -27 -7 -52 -2 -57 8 -8 16 10 25 51 2 10 6 26 10 36
5 11 2 17 -7 17 -9 0 -19 -18 -26 -47z"/>
<path d="M1713 2503 c-3 -10 -12 -32 -19 -50 -11 -29 -11 -32 9 -37 12 -3 23
-3 26 -1 2 3 -1 5 -7 5 -17 0 -15 15 7 60 16 33 17 40 5 40 -8 0 -17 -8 -21
-17z"/>
<path d="M1768 2495 c12 -26 8 -52 -14 -76 -23 -26 0 -25 26 1 25 25 25 42 -1
71 -16 20 -18 20 -11 4z"/>
<path d="M780 2485 c0 -3 9 -14 21 -26 39 -39 6 -104 -36 -69 -18 15 -19 61
-2 80 10 12 9 12 -6 0 -33 -25 -40 -49 -22 -76 29 -45 105 -24 105 30 0 12 -6
29 -12 38 -13 15 -48 32 -48 23z"/>
<path d="M905 2470 c-19 -8 -19 -9 3 -9 12 -1 22 4 22 9 0 6 -1 10 -2 9 -2 0
-12 -4 -23 -9z"/>
<path d="M1828 2427 c-21 -18 -38 -37 -38 -42 0 -5 14 4 30 20 23 22 30 25 30
12 0 -9 -5 -17 -12 -17 -9 0 -9 -3 -1 -11 6 -6 9 -18 6 -25 -3 -8 1 -14 11
-14 13 0 16 11 16 55 0 30 -1 55 -2 55 -2 0 -20 -15 -40 -33z"/>
<path d="M1119 2419 c-226 -38 -426 -141 -589 -300 -86 -85 -105 -107 -159
-186 -74 -109 -153 -293 -175 -408 -4 -16 -9 -41 -11 -55 -22 -107 -22 -358 0
-422 2 -7 6 -30 9 -50 9 -58 54 -186 98 -272 61 -123 125 -213 223 -311 246
-248 574 -363 926 -323 57 7 215 45 234 56 5 4 15 7 20 8 11 2 130 59 160 77
195 118 373 314 464 509 31 67 77 200 86 247 3 14 7 35 9 47 21 105 24 296 6
406 -25 150 -77 304 -137 400 -13 21 -23 40 -23 44 0 6 -51 81 -85 123 -11 14
-52 58 -90 97 -255 256 -613 372 -966 313z"/>
<path d="M637 2406 c-16 -13 -16 -16 9 -60 17 -30 30 -44 36 -38 6 6 0 24 -16
50 -15 24 -22 44 -16 47 14 9 30 -3 30 -24 0 -22 19 -41 42 -41 24 0 23 16 -1
23 -11 2 -21 15 -23 28 -4 28 -34 36 -61 15z"/>
<path d="M1919 2385 c-7 -19 -17 -35 -21 -35 -15 0 -8 -28 9 -34 10 -4 14 -4
11 0 -4 3 2 24 12 45 22 42 25 59 11 59 -5 0 -15 -16 -22 -35z"/>
<path d="M1972 2390 c19 -30 8 -69 -22 -77 -28 -7 -16 -21 14 -16 45 9 52 69
10 103 -17 14 -17 14 -2 -10z"/>
<path d="M580 2363 c0 -3 7 -14 15 -23 9 -10 17 -30 18 -46 3 -45 -32 -44 -61
1 -12 20 -27 33 -32 30 -11 -7 29 -72 49 -80 19 -7 61 21 61 42 0 8 -9 31 -21
49 -20 33 -29 41 -29 27z"/>
<path d="M2040 2342 c0 -5 -11 -22 -25 -38 -27 -32 -30 -40 -15 -49 5 -3 21
12 36 35 21 32 30 38 41 29 7 -7 15 -10 18 -7 2 2 -9 12 -25 22 -17 9 -30 13
-30 8z"/>
<path d="M2050 2280 c0 -5 5 -10 11 -10 5 0 7 5 4 10 -3 6 -8 10 -11 10 -2 0
-4 -4 -4 -10z"/>
<path d="M447 2259 c-20 -19 -20 -19 -1 -8 28 16 52 6 65 -28 9 -24 7 -30 -12
-46 -19 -15 -24 -16 -43 -3 -12 7 -21 23 -20 34 0 13 -4 18 -13 15 -31 -12 2
-73 39 -73 28 0 68 40 68 68 0 34 -9 47 -38 54 -14 4 -30 -1 -45 -13z"/>
<path d="M2128 2222 c-20 -22 -33 -44 -29 -50 4 -6 20 5 42 29 19 21 32 43 29
49 -4 6 -22 -6 -42 -28z"/>
<path d="M2028 2233 c7 -3 16 -2 19 1 4 3 -2 6 -13 5 -11 0 -14 -3 -6 -6z"/>
<path d="M2195 2213 c8 -29 -35 -76 -62 -67 -15 5 -16 4 -3 -5 47 -34 103 30
69 79 -8 12 -9 10 -4 -7z"/>
<path d="M2210 2125 c-33 -34 -33 -35 -15 -55 10 -11 23 -20 29 -20 6 0 3 5
-7 11 -14 8 -15 14 -6 31 11 21 12 21 25 3 8 -10 14 -14 14 -9 0 6 -5 15 -11
21 -8 8 -6 14 9 22 17 9 23 8 31 -6 6 -10 11 -13 11 -7 0 10 -31 44 -41 44 -3
0 -20 -16 -39 -35z"/>
<path d="M318 2129 c-10 -5 -18 -15 -18 -22 0 -8 3 -9 8 -1 15 22 40 22 61 0
26 -28 27 -52 3 -65 -22 -12 -62 11 -62 35 0 8 -4 14 -10 14 -16 0 -12 -37 6
-54 39 -40 101 0 95 61 -2 18 -31 43 -49 43 -9 0 -25 -5 -34 -11z"/>
<path d="M2334 2053 c6 -11 -40 -63 -56 -63 -5 0 -8 -7 -8 -15 0 -18 17 -11
63 27 26 22 27 24 12 43 -9 11 -14 15 -11 8z"/>
<path d="M240 2013 c-12 -8 -25 -25 -29 -36 -7 -18 -1 -26 31 -50 38 -27 40
-28 54 -10 47 61 3 137 -56 96z m49 -26 c13 -15 19 -30 15 -40 -9 -23 -24 -21
-59 8 -29 24 -29 25 -11 40 26 20 29 19 55 -8z"/>
<path d="M2345 1964 c-22 -15 -42 -28 -44 -30 -1 -1 0 -7 4 -13 4 -7 19 -1 41
15 27 21 38 24 47 15 9 -9 7 -13 -11 -17 -12 -4 -19 -10 -16 -15 2 -5 -7 -11
-22 -15 -26 -7 -26 -8 -9 -20 17 -12 22 -10 48 16 29 29 29 32 16 61 l-14 29
-40 -26z"/>
<path d="M2395 1869 c-16 -10 -34 -20 -39 -22 -5 -2 -6 -8 -2 -15 4 -8 20 -3
51 16 44 26 57 43 33 41 -7 0 -26 -9 -43 -20z"/>
<path d="M149 1836 c7 -8 18 -13 26 -10 7 3 16 1 19 -4 8 -13 56 -3 56 12 0 7
-22 12 -56 14 -49 2 -55 0 -45 -12z"/>
<path d="M190 1785 c13 -14 25 -25 27 -25 2 0 -4 11 -13 25 -9 14 -21 25 -27
25 -6 0 0 -11 13 -25z"/>
<path d="M2375 1800 c-2 -4 11 -7 30 -7 19 0 33 3 30 6 -9 8 -55 9 -60 1z"/>
<path d="M2426 1773 c-19 -22 -25 -38 -19 -44 6 -6 21 5 41 30 36 45 37 48 20
47 -7 0 -26 -15 -42 -33z"/>
<path d="M107 1767 c-2 -7 16 -21 43 -33 47 -21 48 -21 53 -3 3 10 1 17 -4 14
-4 -3 -26 3 -48 14 -28 15 -40 17 -44 8z"/>
<path d="M2465 1709 c-22 -9 -49 -18 -59 -18 -16 -1 -17 -4 -8 -13 9 -9 24 -8
67 7 52 17 65 28 48 38 -5 2 -26 -4 -48 -14z"/>
<path d="M86 1694 c-21 -21 -20 -27 3 -15 14 8 20 7 25 -4 8 -22 53 -19 66 5
10 18 9 19 -17 9 -21 -8 -28 -7 -35 6 -11 19 -22 19 -42 -1z"/>
<path d="M60 1652 c0 -13 89 -44 103 -35 12 7 -26 28 -70 38 -20 4 -33 3 -33
-3z"/>
<path d="M2440 1640 c17 -11 57 -14 46 -3 -4 4 -19 9 -34 10 -21 3 -24 1 -12
-7z"/>
<path d="M2476 1607 c-43 -43 -18 -53 29 -12 21 19 37 35 34 36 -2 0 -11 2
-19 3 -8 1 -28 -11 -44 -27z"/>
<path d="M108 1576 c-59 -14 -63 -19 -36 -42 21 -18 21 -18 15 0 -6 15 -3 17
13 13 11 -3 23 -1 26 4 3 5 9 7 14 4 4 -3 10 4 13 15 3 11 4 19 4 19 -1 -1
-23 -6 -49 -13z"/>
<path d="M2508 1540 c-15 -4 -29 -5 -32 -2 -3 3 -6 -5 -6 -17 0 -19 3 -20 20
-11 11 6 20 8 20 6 0 -3 11 -1 24 4 18 6 26 5 30 -5 5 -14 -20 -29 -35 -20
-13 9 -49 -14 -49 -30 0 -19 19 -19 26 0 4 10 15 12 34 9 31 -7 40 9 32 54 -5
23 -18 26 -64 12z"/>
<path d="M100 1518 c0 -9 7 -19 16 -22 15 -6 15 -4 3 11 -7 10 -15 20 -16 22
-2 2 -3 -3 -3 -11z"/>
<path d="M148 1490 c-2 -7 -30 -15 -63 -19 l-60 -6 29 -23 c32 -25 32 -27 -16
-50 -18 -10 -35 -26 -37 -36 -3 -18 -2 -18 13 -3 15 14 21 14 56 2 22 -8 40
-10 40 -6 0 5 -15 11 -32 15 -26 5 -30 9 -18 16 8 5 23 10 33 10 23 0 22 9 -5
38 -13 13 -18 22 -13 21 22 -7 73 11 79 27 4 9 5 19 2 21 -2 2 -6 -1 -8 -7z"/>
<path d="M2486 1421 c6 -6 21 -14 34 -16 30 -6 14 10 -20 20 -18 5 -22 4 -14
-4z"/>
<path d="M2546 1395 c-3 -9 -10 -14 -15 -11 -11 7 -44 -29 -40 -43 2 -6 23 2
46 17 41 26 49 42 26 49 -6 2 -13 -3 -17 -12z"/>
<path d="M58 1262 l-48 -28 47 -22 c26 -12 49 -19 52 -17 2 3 -10 11 -27 17
-29 11 -48 35 -20 26 15 -5 51 27 47 41 -2 6 -25 -2 -51 -17z"/>
<path d="M2532 1260 c0 -14 2 -19 5 -12 2 6 2 18 0 25 -3 6 -5 1 -5 -13z"/>
<path d="M2490 1156 c0 -6 15 -13 33 -14 17 -1 40 -5 50 -8 11 -3 17 0 17 10
0 9 -3 16 -7 17 -64 7 -93 6 -93 -5z"/>
<path d="M10 1132 c0 -9 15 -12 55 -10 69 4 67 23 -3 23 -36 0 -52 -4 -52 -13z"/>
<path d="M2501 1111 c-14 -11 -20 -21 -13 -25 6 -3 17 0 25 9 13 13 17 13 27
0 13 -16 31 -16 42 0 13 18 9 22 -17 17 -15 -2 -25 0 -25 7 0 16 -11 13 -39
-8z"/>
<path d="M10 1101 c0 -6 4 -13 10 -16 6 -3 7 1 4 9 -7 18 -14 21 -14 7z"/>
<path d="M89 1065 c-5 -4 -39 -12 -61 -14 -5 -1 -8 -6 -8 -11 0 -7 13 -8 35
-4 l35 6 -26 -45 -25 -46 23 5 c13 3 30 7 38 9 8 2 21 4 28 4 6 1 12 7 12 15
0 12 -7 13 -32 5 -18 -5 -34 -9 -36 -9 -1 0 9 20 24 45 19 33 22 45 12 45 -8
0 -17 -2 -19 -5z"/>
<path d="M2476 1044 c-3 -9 1 -14 14 -14 26 0 24 0 60 -10 23 -7 30 -5 30 5 0
12 -14 18 -77 29 -12 3 -24 -1 -27 -10z"/>
<path d="M2472 988 c-17 -17 -15 -33 2 -19 18 15 63 4 76 -18 9 -15 9 -15 10
1 0 39 -60 64 -88 36z"/>
<path d="M104 910 c-26 -24 -37 -41 -30 -43 16 -6 76 49 76 69 0 19 1 19 -46
-26z"/>
<path d="M2450 920 c0 -5 9 -18 21 -28 23 -22 56 -19 76 7 18 23 16 35 -3 17
-20 -20 -48 -20 -68 -1 -17 17 -26 19 -26 5z"/>
<path d="M117 877 c-3 -8 1 -14 9 -14 16 0 19 13 5 21 -5 3 -11 0 -14 -7z"/>
<path d="M150 860 c0 -5 5 -10 10 -10 6 0 10 5 10 10 0 6 -4 10 -10 10 -5 0
-10 -4 -10 -10z"/>
<path d="M146 824 c-9 -8 -16 -26 -16 -40 0 -28 -15 -32 -29 -6 -6 9 -11 12
-11 6 0 -5 6 -18 13 -28 18 -24 43 -11 51 26 4 19 13 32 27 35 16 4 17 8 7 14
-18 12 -24 11 -42 -7z"/>
<path d="M2411 804 c-6 -15 -10 -29 -7 -31 2 -2 7 5 11 16 6 20 7 20 51 -4 39
-21 44 -22 44 -6 0 10 -14 22 -37 31 -21 8 -41 16 -44 18 -3 1 -11 -9 -18 -24z"/>
<path d="M201 794 c0 -11 3 -14 6 -6 3 7 2 16 -1 19 -3 4 -6 -2 -5 -13z"/>
<path d="M2407 740 c3 -10 14 -22 25 -26 21 -6 68 13 68 28 0 5 -9 4 -21 -2
-16 -9 -26 -8 -44 4 -31 21 -34 20 -28 -4z"/>
<path d="M218 703 c7 -3 16 -2 19 1 4 3 -2 6 -13 5 -11 0 -14 -3 -6 -6z"/>
<path d="M2373 694 c-13 -11 -14 -14 -3 -12 26 4 57 -12 68 -35 11 -22 11 -22
11 4 1 42 -44 68 -76 43z"/>
<path d="M236 676 c6 -14 -5 -21 -28 -17 -5 0 -8 -3 -8 -8 0 -18 -33 -21 -47
-4 -11 14 -10 11 1 -14 l16 -32 45 26 c49 27 53 34 30 53 -13 11 -14 10 -9 -4z"/>
<path d="M2347 663 c-13 -13 -7 -50 11 -66 24 -22 44 -21 72 3 25 22 20 27 -9
8 -26 -16 -75 15 -68 43 5 20 4 23 -6 12z"/>
<path d="M226 598 c-27 -24 -27 -46 0 -92 11 -18 13 -18 53 10 22 16 41 32 41
37 0 14 -23 7 -55 -18 -18 -13 -35 -21 -39 -18 -14 14 -5 53 16 67 20 14 24
14 47 -1 25 -16 25 -16 12 1 -28 34 -48 38 -75 14z"/>
<path d="M2280 550 c0 -9 3 -12 48 -50 13 -10 21 -23 18 -29 -9 -14 -34 -3
-39 17 -3 15 -5 15 -12 -1 -5 -12 -2 -24 8 -34 14 -14 18 -13 43 12 l28 28
-40 33 c-40 35 -54 41 -54 24z"/>
<path d="M333 440 c-18 -41 -19 -50 -7 -50 12 0 35 39 36 60 0 3 4 10 9 16 8
10 2 24 -10 24 -3 0 -16 -23 -28 -50z"/>
<path d="M2220 468 c0 -19 78 -80 82 -66 3 7 -13 27 -35 45 -43 37 -47 38 -47
21z"/>
<path d="M365 420 c-3 -5 1 -10 9 -10 9 0 16 5 16 10 0 6 -4 10 -9 10 -6 0
-13 -4 -16 -10z"/>
<path d="M2180 424 c0 -16 70 -82 76 -73 3 6 -9 26 -27 45 -31 32 -49 42 -49
28z"/>
<path d="M409 381 c-36 -37 -49 -61 -32 -61 4 0 21 15 38 33 16 19 38 38 49
44 16 9 17 11 2 16 -12 5 -30 -6 -57 -32z"/>
<path d="M2150 380 c-25 -8 -24 -8 7 -15 18 -4 31 -11 28 -15 -2 -4 4 -15 14
-24 15 -13 21 -14 27 -5 4 7 2 15 -4 17 -7 2 -12 10 -12 17 0 21 -31 33 -60
25z"/>
<path d="M465 359 c-5 -7 -4 -10 2 -6 6 4 15 1 21 -6 8 -9 2 -22 -19 -47 -28
-34 -30 -34 -44 -16 -8 11 -15 15 -15 10 0 -6 11 -21 25 -34 14 -13 25 -19 25
-14 0 6 8 19 18 30 43 48 43 49 18 73 -18 17 -26 19 -31 10z"/>
<path d="M2089 323 c-18 -21 -19 -24 -3 -10 20 16 22 16 35 1 11 -13 11 -18 2
-21 -7 -3 -13 -9 -13 -15 0 -6 7 -5 16 3 13 11 17 10 25 -4 13 -22 33 -22 25
-1 -7 19 -49 73 -57 73 -3 1 -16 -11 -30 -26z"/>
<path d="M440 321 c0 -6 4 -13 10 -16 6 -3 7 1 4 9 -7 18 -14 21 -14 7z"/>
<path d="M530 285 c0 -16 -9 -34 -22 -45 l-23 -18 24 -26 c14 -14 28 -26 31
-26 13 0 61 81 54 91 -5 9 -47 -38 -57 -65 -3 -8 -8 -7 -17 1 -11 10 -9 17 13
37 18 16 24 30 20 45 -8 32 -23 36 -23 6z"/>
<path d="M2045 280 c3 -5 10 -10 16 -10 5 0 9 5 9 10 0 6 -7 10 -16 10 -8 0
-12 -4 -9 -10z"/>
<path d="M2010 248 c0 -22 19 -33 52 -29 32 3 37 -15 11 -36 -16 -13 -16 -13
3 -4 45 21 34 61 -16 61 -14 0 -31 5 -38 12 -9 9 -12 8 -12 -4z"/>
<path d="M2140 240 c-9 -6 -10 -10 -3 -10 6 0 15 5 18 10 8 12 4 12 -15 0z"/>
<path d="M615 214 c-8 -9 -12 -20 -9 -25 3 -6 11 -4 17 4 7 8 19 17 26 19 12
4 12 6 -2 11 -9 3 -23 -1 -32 -9z"/>
<path d="M675 190 c7 -22 -19 -67 -43 -73 -10 -3 -5 -5 10 -6 38 -1 62 36 49
73 -12 30 -25 36 -16 6z"/>
<path d="M1954 174 c-18 -14 -18 -15 4 -4 12 6 22 13 22 15 0 8 -5 6 -26 -11z"/>
<path d="M708 121 c-23 -46 -23 -50 -6 -54 10 -3 16 -2 14 1 -2 4 4 25 15 46
11 22 15 44 11 48 -5 5 -20 -13 -34 -41z"/>
<path d="M1837 152 c-31 -19 -35 -46 -9 -61 9 -5 16 -12 15 -15 -8 -16 -1 -26
17 -26 18 0 19 2 8 23 -7 12 -19 26 -25 30 -16 10 -17 33 -3 42 6 4 20 -14 31
-39 23 -53 47 -53 24 -1 -27 65 -27 66 -58 47z"/>
<path d="M580 146 c0 -2 7 -9 15 -16 13 -11 14 -10 9 4 -5 14 -24 23 -24 12z"/>
<path d="M1780 110 c0 -11 -5 -20 -11 -20 -5 0 -7 -4 -4 -10 11 -18 21 -10 23
20 1 17 0 30 -3 30 -3 0 -5 -9 -5 -20z"/>
<path d="M1708 93 c-2 -5 12 -25 33 -46 l36 -39 5 27 c4 16 1 24 -6 22 -6 -2
-19 7 -29 20 -19 23 -33 29 -39 16z"/>
</g>
</svg>
